<svg width="247" height="222" viewBox="0 0 247 222" fill="none" xmlns="http://www.w3.org/2000/svg">
<path d="M140.91 211.651C130.791 224.563 111.188 224.394 101.293 211.31L40.5891 131.039L10.0483 86.1443C-14.791 49.6304 11.3619 0.208924 55.5236 0.208923L191.679 0.208923C236.799 0.208924 262.724 51.5451 235.941 87.8565L204.089 131.039L140.91 211.651Z" fill="black"/>
<path d="M143.462 87.6727C147.83 73.0722 166.27 68.5265 176.924 79.4237L204.138 107.26L138.915 190.947L129.132 199.9C123.573 204.988 114.801 203.999 110.514 197.801L143.462 87.6727Z" fill="#FFCC29"/>
<path d="M143.462 87.6727C147.83 73.0722 166.27 68.5265 176.924 79.4237L204.138 107.26L138.915 190.947L129.132 199.9C123.573 204.988 114.801 203.999 110.514 197.801L143.462 87.6727Z" fill="#FFCC29"/>
<path d="M27.774 85.4786C8.46662 57.2666 24.6356 18.5255 58.2703 12.4094C58.3635 12.3924 58.4581 12.3839 58.5529 12.384L96.1332 12.4149C99.0345 12.4173 101.792 13.6796 103.689 15.8742L121.27 36.2069C130.067 46.3806 133.162 60.2941 129.508 73.2377L100.253 176.859C99.1006 180.941 93.7099 181.825 91.3147 178.325L27.774 85.4786Z" fill="#4F46E5"/>
<path d="M126.956 16.8717C125.65 15.6267 126.53 13.4256 128.334 13.4241L192.94 13.3734C192.963 13.3734 192.986 13.3751 193.009 13.3785C225.509 18.1863 240.771 56.2389 220.602 82.1718L210.538 95.1117C210.191 95.5576 209.535 95.6063 209.126 95.2165L126.956 16.8717Z" fill="#D9291C"/>
<path d="M204.533 107.567L204.801 107.223L204.496 106.911L177.281 79.0742C166.361 67.9045 147.46 72.5639 142.983 87.5293L110.035 197.658L109.966 197.888L110.103 198.086C114.563 204.533 123.687 205.561 129.47 200.269L139.253 191.316L139.284 191.288L139.309 191.255L204.533 107.567ZM176.566 79.7733L203.476 107.297L138.546 190.607L128.795 199.531C123.518 204.36 115.225 203.485 111.062 197.712L143.941 87.816C148.2 73.5805 166.179 69.1484 176.566 79.7733ZM101.692 211.008L40.9955 130.748L10.4617 85.863C-14.1517 49.6811 11.7634 0.708924 55.5236 0.708923L191.679 0.708923C236.389 0.708924 262.078 51.5784 235.538 87.5597L203.696 130.731L203.687 130.743L140.516 211.343C130.599 223.996 111.389 223.831 101.692 211.008ZM129.027 73.1018L99.7717 176.724C98.7346 180.397 93.883 181.192 91.7274 178.042L28.1866 85.1963C9.08384 57.2831 25.0815 18.9527 58.3597 12.9013C58.4233 12.8898 58.4879 12.884 58.5525 12.884L96.1328 12.9149C98.889 12.9171 101.508 14.1163 103.311 16.2013L120.892 36.534C129.579 46.5805 132.635 60.3201 129.027 73.1018ZM100.734 176.995L129.989 73.3735C133.689 60.2682 130.555 46.1808 121.648 35.8799L104.068 15.5472C102.075 13.2428 99.18 11.9174 96.1336 11.9149L58.5534 11.884C58.4284 11.8839 58.3037 11.8951 58.1808 11.9175C24.1897 18.0984 7.84939 57.25 27.3614 85.761L90.9021 178.607C93.5368 182.457 99.4666 181.485 100.734 176.995ZM209.471 94.8546L127.301 16.5098C126.322 15.5761 126.982 13.9252 128.335 13.9241L192.938 13.8734C225.058 18.6267 240.141 56.2347 220.207 81.8648L210.143 94.8048C209.978 95.017 209.666 95.0402 209.471 94.8546ZM126.611 17.2335L208.781 95.5784C209.404 96.1724 210.404 96.0982 210.932 95.4187L220.996 82.4788C241.401 56.2436 225.96 17.7477 193.082 12.8838C193.035 12.8769 192.988 12.8734 192.94 12.8734L128.334 12.9241C126.079 12.9259 124.979 15.6773 126.611 17.2335Z" stroke="black"/>
</svg>
